<svg id="a2c2662f-cd32-46d1-9cd4-0711388a760c" data-name="Слой 2" xmlns="http://www.w3.org/2000/svg" xmlns:xlink="http://www.w3.org/1999/xlink" viewBox="0 0 464.39 446.6">
  <defs>
    <style>
      .\38 2dc2b45-8f39-4c27-8ae3-7567d568e4d0, .\38 636d68d-6861-4304-95fb-e021b14c7dc2, .df981ce0-0c3a-4f0a-bb6f-0e8e645b7d25, .ec9e7688-6677-4536-8b2b-6c28490cbb62 {
        fill: #c2a14b;
      }

      .efea2035-6d9b-44d5-a603-e48de407e6b4 {
        fill: url(#88f4e67e-4081-4dfe-a832-e44b1e24dd4d);
      }

      .b5cfa42f-10f3-41e9-8879-44b476eee02e {
        fill: #1f191a;
      }

      .cbba6e57-8569-417f-ba6f-d50db52fb37f {
        font-size: 12px;
        fill: #fff;
        stroke: #000;
        stroke-miterlimit: 10;
      }

      .\38 2dc2b45-8f39-4c27-8ae3-7567d568e4d0, .cbba6e57-8569-417f-ba6f-d50db52fb37f {
        font-family: MyriadPro-Regular, Myriad Pro;
      }

      .ec9e7688-6677-4536-8b2b-6c28490cbb62 {
        font-size: 63px;
      }

      .\38 636d68d-6861-4304-95fb-e021b14c7dc2, .ec9e7688-6677-4536-8b2b-6c28490cbb62 {
        font-family: Roboto-Regular, Roboto;
      }

      .\38 2dc2b45-8f39-4c27-8ae3-7567d568e4d0 {
        font-size: 16.01px;
      }

      .\38 636d68d-6861-4304-95fb-e021b14c7dc2 {
        font-size: 62px;
      }
    </style>
    <linearGradient id="88f4e67e-4081-4dfe-a832-e44b1e24dd4d" data-name="Небо" x1="153.86" y1="250.06" x2="327.64" y2="250.06" gradientUnits="userSpaceOnUse">
      <stop offset="0" stop-color="#cce0f4"/>
      <stop offset="0.06" stop-color="#c3dcf2"/>
      <stop offset="0.17" stop-color="#a9d2ee"/>
      <stop offset="0.31" stop-color="#80c2e7"/>
      <stop offset="0.46" stop-color="#47acde"/>
      <stop offset="0.57" stop-color="#1e9cd7"/>
      <stop offset="0.87" stop-color="#0075be"/>
      <stop offset="0.99" stop-color="#005b97"/>
    </linearGradient>
  </defs>
  <title>Premium</title>
  <circle class="df981ce0-0c3a-4f0a-bb6f-0e8e645b7d25" cx="232.19" cy="224.3" r="135.31"/>
  <g>
    <path class="efea2035-6d9b-44d5-a603-e48de407e6b4" d="M327.64,223.43l-86.89,93.43-86.89-93.43,42-40.17h89.7Zm-59.79-1.87h46.71l-29.9-28Zm-18.69,75.68,61.66-69.14H266Zm11.21-80.35,15.88-26.16H246.36Zm-19.62,79.42,16.82-68.21h-32.7Zm14.95-74.75L240.75,195.4l-14,26.16Zm-34.57-4.67,14-26.16H204.31Zm12.15,80.35L216.46,228.1H171.61Zm-19.63-75.68-15.88-28-30.83,28Z" transform="translate(-7.81 -16.7)"/>
    <path class="b5cfa42f-10f3-41e9-8879-44b476eee02e" d="M240.75,130A110.25,110.25,0,1,1,130.5,240.25,110.25,110.25,0,0,1,240.75,130Zm0,186.86,86.89-93.43-42-40.17H195.9l-42,40.17Z" transform="translate(-7.81 -16.7)"/>
    <polygon class="b5cfa42f-10f3-41e9-8879-44b476eee02e" points="306.75 204.86 260.04 204.86 276.85 176.83 306.75 204.86"/>
    <polygon class="b5cfa42f-10f3-41e9-8879-44b476eee02e" points="303.01 211.4 241.35 280.54 258.17 211.4 303.01 211.4"/>
    <polygon class="b5cfa42f-10f3-41e9-8879-44b476eee02e" points="268.44 174.03 252.56 200.19 238.55 174.03 268.44 174.03"/>
    <polygon class="b5cfa42f-10f3-41e9-8879-44b476eee02e" points="249.76 211.4 232.94 279.61 217.06 211.4 249.76 211.4"/>
    <polygon class="b5cfa42f-10f3-41e9-8879-44b476eee02e" points="232.94 178.7 247.89 204.86 218.93 204.86 232.94 178.7"/>
    <polygon class="b5cfa42f-10f3-41e9-8879-44b476eee02e" points="227.33 174.03 213.32 200.19 196.5 174.03 227.33 174.03"/>
    <polygon class="b5cfa42f-10f3-41e9-8879-44b476eee02e" points="208.65 211.4 225.47 280.54 163.8 211.4 208.65 211.4"/>
    <polygon class="b5cfa42f-10f3-41e9-8879-44b476eee02e" points="189.96 176.83 205.84 204.86 159.13 204.86 189.96 176.83"/>
  </g>
  <path class="b5cfa42f-10f3-41e9-8879-44b476eee02e" d="M467.8,222.65h0v0a42.57,42.57,0,0,0-3.63-6c-.18-.25-.38-.49-.56-.73l-20.09-32.18q-2.25-8.25-5.15-16.22l-1.7-39.2A42.06,42.06,0,0,0,414.1,92.06h0l0,0a41.82,41.82,0,0,0-6.44-2.7c-.3-.1-.6-.18-.89-.26l-35-14.18Q365,69.53,357.83,64.71L333.45,34A42.05,42.05,0,0,0,293.89,18h0a41.6,41.6,0,0,0-6.8,1.6l-.88.31-37.31,9.28c-2.78-.11-5.56-.18-8.36-.18-2.49,0-5,.06-7.45.14L194.54,18.45A42,42,0,0,0,153.1,28.71h0l0,0A42.39,42.39,0,0,0,148.51,34l-.53.76L122.44,65.2Q116.92,69,111.66,73L73,87.48a42.07,42.07,0,0,0-27.5,32.66v0a40.94,40.94,0,0,0-.58,7c0,.32,0,.62,0,.93L42,169.15q-1.75,5-3.29,10.13l-23.5,35.49a42,42,0,0,0-3,42.58h0v0a42.57,42.57,0,0,0,3.63,6c.18.25.38.49.56.73L38.2,299l0-1.08q1.48,5.14,3.22,10.17l1.89,43.58A42.06,42.06,0,0,0,65.9,387.94h0l0,0a41.81,41.81,0,0,0,6.44,2.7c.3.1.6.18.89.26l38.17,15.45-.85-1.22q4.21,3.3,8.61,6.4L146.55,446A42.05,42.05,0,0,0,186.11,462h0a41.61,41.61,0,0,0,6.8-1.6l.88-.31,40-9.94-.9-.31c2.53.09,5.06.15,7.61.15,1.07,0,2.14,0,3.21,0l41.75,11.59a42,42,0,0,0,41.44-10.26h0l0,0a42.39,42.39,0,0,0,4.56-5.29l.53-.76L358.19,414c3.25-2.2,6.44-4.5,9.56-6.87L407,392.52a42.07,42.07,0,0,0,27.5-32.66v0a41,41,0,0,0,.58-7c0-.32,0-.62,0-.93l2.75-39q2.59-7,4.7-14.17l22.24-33.58A42,42,0,0,0,467.8,222.65ZM240,367A126,126,0,1,1,366,241,126,126,0,0,1,240,367Z" transform="translate(-7.81 -16.7)"/>
  <text class="cbba6e57-8569-417f-ba6f-d50db52fb37f" transform="matrix(0.55, -0.84, 0.84, 0.55, 115.36, 149.7)"> </text>
  <text class="ec9e7688-6677-4536-8b2b-6c28490cbb62" transform="matrix(0.67, -0.75, 0.75, 0.67, 115.49, 146.93)">P</text>
  <text class="ec9e7688-6677-4536-8b2b-6c28490cbb62" transform="translate(141.74 117.51) rotate(-32.35)">R</text>
  <text class="ec9e7688-6677-4536-8b2b-6c28490cbb62" transform="translate(174.32 97.05) rotate(-17.08)">E</text>
  <text class="ec9e7688-6677-4536-8b2b-6c28490cbb62" transform="matrix(1, 0.02, -0.02, 1, 208.08, 85.08)">M</text>
  <text class="ec9e7688-6677-4536-8b2b-6c28490cbb62" transform="translate(262.39 88.73) rotate(16.07)">I</text>
  <text class="ec9e7688-6677-4536-8b2b-6c28490cbb62" transform="translate(279.04 92.22) rotate(27.96)">U</text>
  <text class="ec9e7688-6677-4536-8b2b-6c28490cbb62" transform="matrix(0.68, 0.74, -0.74, 0.68, 315.67, 110.3)">M</text>
  <text class="82dc2b45-8f39-4c27-8ae3-7567d568e4d0" transform="matrix(0.63, 0.78, -0.78, 0.63, 86.81, 338.57)"> </text>
  <text class="8636d68d-6861-4304-95fb-e021b14c7dc2" transform="translate(88.58 342.7) rotate(43.93)">Q</text>
  <text class="8636d68d-6861-4304-95fb-e021b14c7dc2" transform="translate(131.33 380.6) rotate(26.67)">U</text>
  <text class="8636d68d-6861-4304-95fb-e021b14c7dc2" transform="translate(180.46 403.02) rotate(9.83)">A</text>
  <text class="8636d68d-6861-4304-95fb-e021b14c7dc2" transform="translate(234.69 409.93) rotate(-5.86)">L</text>
  <text class="8636d68d-6861-4304-95fb-e021b14c7dc2" transform="matrix(0.95, -0.31, 0.31, 0.95, 281.26, 402.82)">I</text>
  <text class="8636d68d-6861-4304-95fb-e021b14c7dc2" transform="translate(309.61 393.28) rotate(-30.38)">T</text>
  <text class="8636d68d-6861-4304-95fb-e021b14c7dc2" transform="translate(353.22 365.33) rotate(-46.38)">Y</text>
  <path class="df981ce0-0c3a-4f0a-bb6f-0e8e645b7d25" d="M89.5,218.8l-8.59-4a2.66,2.66,0,0,0-2.47.12l-8.16,4.82a2.66,2.66,0,0,1-4-2.61l1.14-9.41a2.66,2.66,0,0,0-.88-2.31l-7.1-6.27a2.66,2.66,0,0,1,1.25-4.6l9.3-1.82a2.66,2.66,0,0,0,1.93-1.55l3.77-8.69a2.66,2.66,0,0,1,4.76-.23l4.61,8.28a2.66,2.66,0,0,0,2.07,1.35l9.43.9a2.66,2.66,0,0,1,1.69,4.45l-6.45,6.94a2.66,2.66,0,0,0-.65,2.38l2.06,9.25A2.66,2.66,0,0,1,89.5,218.8Z" transform="translate(-7.81 -16.7)"/>
  <path class="df981ce0-0c3a-4f0a-bb6f-0e8e645b7d25" d="M105.78,311.31l-9.3,1.82a2.66,2.66,0,0,0-1.93,1.55l-3.77,8.69a2.66,2.66,0,0,1-4.76.23l-4.61-8.28A2.66,2.66,0,0,0,79.36,314l-9.43-.9a2.66,2.66,0,0,1-1.69-4.45l6.45-6.94a2.66,2.66,0,0,0,.65-2.38l-2.06-9.25a2.66,2.66,0,0,1,3.71-3l8.59,4a2.66,2.66,0,0,0,2.47-.12l8.16-4.82a2.66,2.66,0,0,1,4,2.61L99,298.13a2.66,2.66,0,0,0,.88,2.31l7.1,6.27A2.66,2.66,0,0,1,105.78,311.31Z" transform="translate(-7.81 -16.7)"/>
  <path class="df981ce0-0c3a-4f0a-bb6f-0e8e645b7d25" d="M385.56,283.71l7.89,5.24a2.66,2.66,0,0,0,2.46.25l8.79-3.53a2.66,2.66,0,0,1,3.55,3.18L405.7,298a2.66,2.66,0,0,0,.52,2.42l6.07,7.27a2.66,2.66,0,0,1-1.93,4.35l-9.47.4a2.66,2.66,0,0,0-2.14,1.24l-5,8a2.66,2.66,0,0,1-4.74-.49l-3.3-8.88a2.66,2.66,0,0,0-1.84-1.65l-9.19-2.31a2.66,2.66,0,0,1-1-4.66l7.43-5.88a2.66,2.66,0,0,0,1-2.26l-.64-9.45A2.66,2.66,0,0,1,385.56,283.71Z" transform="translate(-7.81 -16.7)"/>
  <path class="df981ce0-0c3a-4f0a-bb6f-0e8e645b7d25" d="M383.46,189.8l9.47-.4a2.66,2.66,0,0,0,2.14-1.24l5-8a2.66,2.66,0,0,1,4.74.49l3.3,8.88a2.66,2.66,0,0,0,1.84,1.65l9.19,2.31a2.66,2.66,0,0,1,1,4.66L412.74,204a2.66,2.66,0,0,0-1,2.26l.64,9.45a2.66,2.66,0,0,1-4.12,2.39l-7.89-5.24a2.66,2.66,0,0,0-2.46-.25l-8.79,3.53a2.66,2.66,0,0,1-3.55-3.18l2.55-9.12a2.66,2.66,0,0,0-.52-2.42l-6.07-7.27A2.66,2.66,0,0,1,383.46,189.8Z" transform="translate(-7.81 -16.7)"/>
</svg>
